<?xml version="1.0"?>
<svg version="1.1" id="圖層_1" xmlns="http://www.w3.org/2000/svg" x="0" y="0" viewBox="0 0 100 100" xml:space="preserve"><circle cx="52" cy="52.4" r="20.9" fill-rule="evenodd" clip-rule="evenodd" fill="#e0e0e0" stroke="#000" stroke-width="5" stroke-linecap="round" stroke-miterlimit="10"/><path d="M26.9 57.5c-4.2-4-6.9-9.6-6.9-15.8 0-12 9.7-21.7 21.7-21.7 10.3 0 18.9 7.1 21.1 16.7" fill-rule="evenodd" clip-rule="evenodd" fill="#e0e0e0" stroke="#000" stroke-width="5" stroke-linecap="round" stroke-miterlimit="10"/><path d="M76.5 55.8c2.4-2.6 3.8-6.1 3.8-9.9 0-8.1-6.6-14.7-14.7-14.7-6.1 0-11.3 3.7-13.6 9" fill-rule="evenodd" clip-rule="evenodd" fill="#e0e0e0" stroke="#000" stroke-width="5" stroke-linecap="round" stroke-miterlimit="10"/><path d="M67.3 53.4c2.7-2.3 6.2-3.7 10-3.7 8.4 0 15.2 6.8 15.2 15.2s-6.8 15.2-15.2 15.2H22.7c-8.4 0-15.2-6.8-15.2-15.2s6.8-15.2 15.2-15.2c1.6 0 3.1.2 4.5.7" fill-rule="evenodd" clip-rule="evenodd" fill="#e0e0e0" stroke="#000" stroke-width="5" stroke-linecap="round" stroke-miterlimit="10"/><metadata xmlns:d="https://loading.io/stock/"><d:name>cloud</d:name><d:tags>weather,upload,rain,fog,smoke,cloud,weather</d:tags><d:license>by</d:license><d:slug>1yi1b</d:slug></metadata></svg>